<svg width="24" height="22" viewBox="0 0 24 22" fill="none" xmlns="http://www.w3.org/2000/svg">
<path d="M2.19286 5.57138C2.19286 4.65219 2.93799 3.90709 3.85714 3.90709H16.4286C16.7718 3.90709 17.05 3.62886 17.05 3.28566C17.05 2.94246 16.7718 2.66423 16.4286 2.66423H3.85714C2.25157 2.66423 0.95 3.96582 0.95 5.57138V18.1428C0.95 19.7484 2.25157 21.0499 3.85714 21.0499H21C22.6056 21.0499 23.9071 19.7484 23.9071 18.1428V8.42852C23.9071 8.08531 23.6289 7.80709 23.2857 7.80709C22.9425 7.80709 22.6643 8.08531 22.6643 8.42852V18.1428C22.6643 19.062 21.9192 19.8071 21 19.8071H3.85714C2.93799 19.8071 2.19286 19.062 2.19286 18.1428V5.57138Z" fill="white" stroke="white" stroke-width="0.1"/>
<path d="M7.15365 7.41777C6.91098 7.1751 6.51749 7.1751 6.27482 7.41777C6.03215 7.66044 6.03215 8.05392 6.27482 8.29659L11.181 13.2028C11.87 13.8918 12.987 13.8918 13.676 13.2028L18.5822 8.29659C18.8249 8.05392 18.8249 7.66044 18.5822 7.41777C18.3396 7.1751 17.9461 7.1751 17.7034 7.41777L12.7972 12.3239C12.5936 12.5276 12.2634 12.5276 12.0598 12.3239L7.15365 7.41777Z" fill="white" stroke="white" stroke-width="0.1"/>
<path d="M22.6642 3.28571C22.6642 3.8893 22.1749 4.37857 21.5714 4.37857C20.9678 4.37857 20.4785 3.8893 20.4785 3.28571C20.4785 2.68215 20.9678 2.19286 21.5714 2.19286C22.1749 2.19286 22.6642 2.68215 22.6642 3.28571ZM21.5714 5.62143C22.8613 5.62143 23.9071 4.57567 23.9071 3.28571C23.9071 1.99573 22.8613 0.95 21.5714 0.95C20.2814 0.95 19.2356 1.99573 19.2356 3.28571C19.2356 4.57567 20.2814 5.62143 21.5714 5.62143Z" fill="white" stroke="white" stroke-width="0.1"/>
</svg>
