<svg width="21" height="20" viewBox="0 0 21 20" fill="none" xmlns="http://www.w3.org/2000/svg">
<path d="M7.59259 17.1114L7.5924 17.1124C7.62107 17.1181 7.66456 17.1338 7.70354 17.1521C7.72343 17.1614 7.7435 17.172 7.761 17.1833C7.77749 17.1939 7.79573 17.2077 7.80812 17.2242L9.19951 19.0794L7.59259 17.1114ZM7.59259 17.1114H7.5826M7.59259 17.1114H7.5826M7.5826 17.1114H7.11877C5.18647 17.1114 3.63702 16.8489 2.56963 15.9474C1.50422 15.0476 0.907178 13.5003 0.907178 10.8998V6.2616C0.907178 4.21988 1.44523 2.66912 2.48576 1.62858C3.5263 0.58805 5.07706 0.05 7.11877 0.05H14.5399C16.5816 0.05 18.1324 0.58805 19.1729 1.62858C20.2135 2.66912 20.7515 4.21988 20.7515 6.2616V10.8998C20.7515 12.9415 20.2135 14.4923 19.1729 15.5328C18.1324 16.5734 16.5816 17.1114 14.5399 17.1114H14.0761C13.9842 17.1114 13.9061 17.1575 13.8522 17.2222L13.8521 17.2221M7.5826 17.1114L13.8521 17.2221M13.8521 17.2221L13.8506 17.2242M13.8521 17.2221L13.8506 17.2242M13.8506 17.2242L12.4592 19.0794C12.0406 19.6344 11.4517 19.95 10.8293 19.95C10.2071 19.95 9.61818 19.6345 9.19959 19.0795L13.8506 17.2242ZM10.2328 18.3046L10.233 18.3049C10.4022 18.5272 10.6127 18.6446 10.8293 18.6446C11.046 18.6446 11.2565 18.5272 11.4257 18.3049L11.4259 18.3046L12.8174 16.4493C13.1141 16.0537 13.5816 15.8199 14.0761 15.8199H14.5399C16.2072 15.8199 17.4402 15.4311 18.2557 14.6156C19.0712 13.8001 19.4601 12.5671 19.4601 10.8998V6.2616C19.4601 4.59428 19.0712 3.36134 18.2557 2.54581C17.4402 1.73029 16.2072 1.34147 14.5399 1.34147H7.11877C5.45146 1.34147 4.21851 1.73029 3.40299 2.54581C2.58747 3.36134 2.19864 4.59428 2.19864 6.2616V10.8998C2.19864 12.9985 2.55767 14.2361 3.36358 14.9448C4.16776 15.652 5.40371 15.8199 7.11877 15.8199H7.5826C8.03982 15.8199 8.56306 16.0814 8.8413 16.4493C8.84134 16.4493 8.84138 16.4494 8.84141 16.4495L10.2328 18.3046Z" fill="white" stroke="#6200EA" stroke-width="0.1"/>
<path d="M10.8293 9.92223C10.3377 9.92223 9.95161 9.5275 9.95161 9.04459C9.95161 8.562 10.3467 8.16694 10.8293 8.16694C11.3118 8.16694 11.7069 8.562 11.7069 9.04459C11.7069 9.5275 11.3208 9.92223 10.8293 9.92223Z" fill="white" stroke="#6200EA" stroke-width="0.1"/>
<path d="M14.5399 9.92223C14.0484 9.92223 13.6623 9.5275 13.6623 9.04459C13.6623 8.562 14.0574 8.16694 14.5399 8.16694C15.0225 8.16694 15.4176 8.562 15.4176 9.04459C15.4176 9.5275 15.0315 9.92223 14.5399 9.92223Z" fill="white" stroke="#6200EA" stroke-width="0.1"/>
<path d="M7.11881 9.92223C6.62727 9.92223 6.24116 9.5275 6.24116 9.04459C6.24116 8.562 6.63622 8.16694 7.11881 8.16694C7.6014 8.16694 7.99645 8.562 7.99645 9.04459C7.99645 9.5275 7.61035 9.92223 7.11881 9.92223Z" fill="white" stroke="#6200EA" stroke-width="0.1"/>
</svg>
