<svg width="21" height="20" viewBox="0 0 21 20" fill="none" xmlns="http://www.w3.org/2000/svg">
<path d="M9.79043 5.55557C9.79043 4.99715 10.2431 4.54446 10.8015 4.54446C11.36 4.54446 11.8127 4.99715 11.8127 5.55557C11.8127 6.114 11.36 6.56668 10.8015 6.56668C10.2431 6.56668 9.79043 6.114 9.79043 5.55557Z" fill="white" stroke="#6200EA" stroke-width="0.2"/>
<path d="M10.8016 15.4758C10.3966 15.4758 10.0683 15.1475 10.0683 14.7425V8.16038C10.0683 7.75534 10.3966 7.42703 10.8016 7.42703C11.2066 7.42703 11.5349 7.75534 11.5349 8.16038V14.7425C11.5349 15.1475 11.2066 15.4758 10.8016 15.4758Z" fill="white" stroke="#6200EA" stroke-width="0.2"/>
<path d="M20.7015 13.3333C20.7015 16.96 17.7615 19.9 14.1348 19.9H7.46818C3.84151 19.9 0.901514 16.96 0.901514 13.3333V6.66667C0.901514 3.04 3.84151 0.1 7.46818 0.1H14.1348C17.7615 0.1 20.7015 3.04 20.7015 6.66667V13.3333ZM14.1348 18.4333C16.9515 18.4333 19.2348 16.15 19.2348 13.3333V6.66667C19.2348 3.85002 16.9515 1.56667 14.1348 1.56667H7.46818C4.65153 1.56667 2.36818 3.85002 2.36818 6.66667V13.3333C2.36818 16.15 4.65153 18.4333 7.46818 18.4333H14.1348Z" fill="white" stroke="#6200EA" stroke-width="0.2"/>
</svg>
