<svg width="21" height="20" viewBox="0 0 21 20" fill="none" xmlns="http://www.w3.org/2000/svg">
<path d="M20.2045 4.19093L20.2045 4.19092C20.5862 3.9683 20.7151 3.47845 20.4925 3.09681C20.2698 2.71515 19.78 2.58626 19.3984 2.80887L19.3984 2.80889L19.1767 2.93817C15.6708 4.98324 12.7838 7.92501 10.8057 11.4501L10.6766 11.6802L10.49 11.4937L7.43947 8.4464L7.43946 8.44639C7.12688 8.13412 6.62036 8.13439 6.30811 8.44693L20.2045 4.19093ZM20.2045 4.19093L19.9829 4.32021C16.3537 6.43727 13.4378 9.58799 11.6077 13.37L11.7877 13.4571M20.2045 4.19093L11.7877 13.4571M11.7877 13.4571L11.6077 13.37C11.4949 13.6031 11.2763 13.7671 11.021 13.8103C10.7657 13.8535 10.5054 13.7705 10.3222 13.5875L10.3222 13.5875M11.7877 13.4571L10.3222 13.5875M10.3222 13.5875L6.3087 9.5783L6.16735 9.7198M10.3222 13.5875L6.16735 9.7198M6.16735 9.7198L6.3087 9.5783C5.99613 9.26608 5.99583 8.75961 6.3081 8.44695L6.16735 9.7198ZM15.1575 1.21911L15.1575 1.21912C15.5532 1.41574 15.7145 1.89588 15.5179 2.29154C15.3213 2.68722 14.8411 2.84855 14.4455 2.65193L14.4455 2.65193C13.3487 2.10686 12.1121 1.8 10.8015 1.8C6.27278 1.8 2.60151 5.47126 2.60151 10C2.60151 14.5288 6.27278 18.2 10.8015 18.2C15.3303 18.2 19.0015 14.5288 19.0015 10C19.0015 9.47312 18.9519 8.95864 18.8574 8.46061L18.6609 8.4979L18.8574 8.4606C18.775 8.0265 19.0601 7.60781 19.4941 7.52541C19.9282 7.44301 20.3469 7.72811 20.4293 8.1622C20.5424 8.75807 20.6015 9.37249 20.6015 10C20.6015 15.4123 16.2139 19.8 10.8015 19.8C5.38912 19.8 1.00151 15.4123 1.00151 10C1.00151 4.58761 5.38912 0.2 10.8015 0.2C12.3646 0.2 13.8444 0.566549 15.1575 1.21911Z" fill="white" stroke="#6200EA" stroke-width="0.4"/>
</svg>
