<svg width="18" height="18" viewBox="0 0 18 18" fill="none" xmlns="http://www.w3.org/2000/svg">
<path d="M9 17C6.86312 17 4.85413 16.1679 3.34313 14.6569C1.83213 13.1459 1 11.1369 1 9C1 6.86312 1.83216 4.85416 3.34313 3.34313C4.85409 1.83209 6.86312 1 9 1C11.1369 1 13.1459 1.83213 14.6569 3.34313C16.1679 4.85413 17 6.86312 17 9C17 11.1369 16.1678 13.1458 14.6569 14.6569C13.1459 16.1679 11.1369 17 9 17ZM9 2C5.14019 2 2 5.14019 2 9C2 12.8598 5.14019 16 9 16C12.8598 16 16 12.8598 16 9C16 5.14019 12.8598 2 9 2Z" fill="#0D1B2A" stroke="#0D1B2A" stroke-width="0.4"/>
<path d="M9 8.5C8.31075 8.5 7.75 7.93925 7.75 7.25C7.75 6.56075 8.31075 6 9 6C9.68925 6 10.25 6.56075 10.25 7.25C10.25 7.52612 10.4738 7.75 10.75 7.75C11.0262 7.75 11.25 7.52612 11.25 7.25C11.25 6.18122 10.5007 5.28475 9.5 5.05669V4.5C9.5 4.22387 9.27616 4 9 4C8.72384 4 8.5 4.22387 8.5 4.5V5.05669C7.49931 5.28475 6.75 6.18122 6.75 7.25C6.75 8.49066 7.75934 9.5 9 9.5C9.68925 9.5 10.25 10.0608 10.25 10.75C10.25 11.4392 9.68925 12 9 12C8.31075 12 7.75 11.4392 7.75 10.75C7.75 10.4739 7.52616 10.25 7.25 10.25C6.97384 10.25 6.75 10.4739 6.75 10.75C6.75 11.8188 7.49931 12.7153 8.5 12.9433V13.5C8.5 13.7761 8.72384 14 9 14C9.27616 14 9.5 13.7761 9.5 13.5V12.9433C10.5007 12.7153 11.25 11.8188 11.25 10.75C11.25 9.50934 10.2407 8.5 9 8.5Z" fill="#0D1B2A" stroke="#0D1B2A" stroke-width="0.4"/>
</svg>
