<svg width="88" height="32" viewBox="0 0 88 32" fill="none" xmlns="http://www.w3.org/2000/svg">
<path fill-rule="evenodd" clip-rule="evenodd" d="M16.6296 1.4224L27.397 17.6715C28.0633 18.6793 28.1193 19.8832 27.5482 20.947C26.977 22.0109 25.9412 22.6268 24.7373 22.6268H23.5727C22.9232 22.6268 22.3576 22.9236 21.9937 23.4611L17.1111 30.5946C16.5008 31.4905 15.5825 32 14.4963 32C13.41 32 12.4805 31.5017 11.8814 30.5946C7.09402 23.3771 11.859 22.6268 19.1045 22.6324C22.2568 22.6324 18.8637 19.0993 18.1806 18.4218C15.8625 16.1037 12.0774 16.1037 9.75928 18.4218C7.39079 20.7903 6.57889 22.6324 3.20253 22.6324C1.99869 22.6324 0.962825 22.0109 0.391699 20.9526C-0.179426 19.8888 -0.123433 18.6849 0.54288 17.6771L11.3103 1.42799C11.9206 0.509714 12.8669 0.000180754 13.9699 0.000180754C15.073 -0.0110178 16.0193 0.498516 16.6296 1.4224ZM13.9699 8.32629C15.9017 8.32629 17.4695 9.89409 17.4695 11.8258C17.4695 13.7576 15.9017 15.3254 13.9699 15.3254C12.0382 15.3254 10.4704 13.7576 10.4704 11.8258C10.4704 9.89409 12.0382 8.32629 13.9699 8.32629Z" fill="white"/>
<path d="M36.912 15.648C36.912 14.08 37.296 12.632 38.064 11.304C38.848 9.976 39.904 8.928 41.232 8.16C42.56 7.376 44.008 6.984 45.576 6.984C47.176 6.984 48.656 7.4 50.016 8.232C51.376 9.048 52.424 10.136 53.16 11.496L50.4 12.96C49.92 12.112 49.248 11.432 48.384 10.92C47.52 10.392 46.584 10.128 45.576 10.128C44.584 10.128 43.656 10.376 42.792 10.872C41.944 11.368 41.272 12.04 40.776 12.888C40.28 13.736 40.032 14.656 40.032 15.648C40.032 16.64 40.28 17.56 40.776 18.408C41.272 19.256 41.944 19.928 42.792 20.424C43.656 20.92 44.584 21.168 45.576 21.168C46.616 21.168 47.56 20.904 48.408 20.376C49.272 19.848 49.944 19.144 50.424 18.264L53.184 19.776C52.448 21.152 51.4 22.256 50.04 23.088C48.68 23.904 47.192 24.312 45.576 24.312C44.008 24.312 42.56 23.928 41.232 23.16C39.904 22.376 38.848 21.32 38.064 19.992C37.296 18.664 36.912 17.216 36.912 15.648ZM64.7169 24L61.4289 18.192H58.3089V24H55.1649V7.2H61.9809C62.9729 7.2 63.8929 7.448 64.7409 7.944C65.5889 8.424 66.2529 9.088 66.7329 9.936C67.2289 10.784 67.4769 11.704 67.4769 12.696C67.4769 13.72 67.2209 14.656 66.7089 15.504C66.1969 16.352 65.5089 17.016 64.6449 17.496L68.2929 24H64.7169ZM58.3089 10.176V15.192H61.9809C62.6689 15.192 63.2609 14.952 63.7569 14.472C64.2529 13.976 64.5009 13.384 64.5009 12.696C64.5009 11.992 64.2529 11.4 63.7569 10.92C63.2769 10.424 62.6849 10.176 61.9809 10.176H58.3089ZM83.0374 7.248V7.2H86.1574V24H83.0374V12.912L78.3814 20.712H77.6134L72.9574 12.912V24H69.8134V7.2H72.9574V7.248L73.0294 7.2L77.9974 15.576L82.9654 7.2L83.0374 7.248Z" fill="white"/>
</svg>
